<svg xmlns="http://www.w3.org/2000/svg" xmlns:xlink="http://www.w3.org/1999/xlink" viewBox="0 0 430 430" width="430" height="430" preserveAspectRatio="xMidYMid meet" style="width: 100%; height: 100%; transform: translate3d(0px, 0px, 0px); content-visibility: visible;"><defs><clipPath id="__lottie_element_2"><rect width="430" height="430" x="0" y="0"/></clipPath><clipPath id="__lottie_element_4"><path d="M0,0 L430,0 L430,430 L0,430z"/></clipPath></defs><g clip-path="url(#__lottie_element_2)"><g clip-path="url(#__lottie_element_4)" transform="matrix(1,0,0,1,0,0)" opacity="1" style="display: block;"><g transform="matrix(1,0,0,1,215.0030059814453,215.5)" opacity="1" style="display: block;"><g opacity="1" transform="matrix(1,0,0,1,0,0)"><path class="tertiary" fill="rgb(209,243,249)" fill-opacity="1" d=" M32.867000579833984,165.2519989013672 C65.5510025024414,158.75100708007812 95.572998046875,142.70399475097656 119.13700103759766,119.13999938964844 C119.13700103759766,119.13999938964844 119.13700103759766,119.13999938964844 119.13700103759766,119.13999938964844 C134.78500366210938,103.49600219726562 147.19700622558594,84.9219970703125 155.66600036621094,64.4800033569336 C164.13499450683594,44.03799819946289 168.49400329589844,22.12700080871582 168.49400329589844,0 C168.49400329589844,-22.12700080871582 164.13499450683594,-44.03799819946289 155.66600036621094,-64.4800033569336 C147.19700622558594,-84.9219970703125 134.78500366210938,-103.49600219726562 119.13700103759766,-119.13999938964844 C95.572998046875,-142.70399475097656 65.5510025024414,-158.75100708007812 32.867000579833984,-165.2519989013672 C0.18299999833106995,-171.7530059814453 -33.694000244140625,-168.41799926757812 -64.48200225830078,-155.6649932861328 C-95.2699966430664,-142.91200256347656 -121.58399963378906,-121.31600189208984 -140.09800720214844,-93.60800170898438 C-158.61199951171875,-65.9000015258789 -168.49400329589844,-33.32400131225586 -168.49400329589844,0 C-168.49400329589844,33.32400131225586 -158.61199951171875,65.9000015258789 -140.09800720214844,93.60800170898438 C-121.58399963378906,121.31600189208984 -95.2699966430664,142.91200256347656 -64.48200225830078,155.6649932861328 C-33.694000244140625,168.41799926757812 0.18299999833106995,171.7530059814453 32.867000579833984,165.2519989013672z"/></g><g opacity="0.5" transform="matrix(1,0,0,1,0,0)" style="mix-blend-mode: multiply;"><path class="tertiary" fill="rgb(209,243,249)" fill-opacity="1" d=" M27.323999404907227,166.2550048828125 C49.847999572753906,162.5590057373047 71.38500213623047,154.3280029296875 90.63200378417969,142.05799865722656 C90.63200378417969,142.05799865722656 90.63200378417969,142.05799865722656 90.63200378417969,142.05799865722656 C52.05400085449219,161.58700561523438 7.446000099182129,165.54100036621094 -33.965999603271484,153.10400390625 C-75.37799835205078,140.66700744628906 -110.4260025024414,112.78800201416016 -131.86099243164062,75.23600006103516 C-153.29600524902344,37.683998107910156 -159.4770050048828,-6.670000076293945 -149.1280059814453,-48.65299987792969 C-138.7790069580078,-90.63600158691406 -112.69100189208984,-127.03500366210938 -76.25800323486328,-150.32200622558594 C-96.61000061035156,-139.98899841308594 -114.6500015258789,-125.62999725341797 -129.28599548339844,-108.11499786376953 C-143.9219970703125,-90.5999984741211 -154.8470001220703,-70.29399871826172 -161.3990020751953,-48.43000030517578 C-167.9510040283203,-26.56599998474121 -169.99400329589844,-3.5980000495910645 -167.4029998779297,19.07900047302246 C-164.81199645996094,41.75600051879883 -157.64199829101562,63.67100143432617 -146.32699584960938,83.49400329589844 C-135.01199340820312,103.31700134277344 -119.78900146484375,120.63400268554688 -101.58000183105469,134.39700317382812 C-83.37100219726562,148.16000366210938 -62.555999755859375,158.0800018310547 -40.39799880981445,163.55599975585938 C-18.239999771118164,169.03199768066406 4.800000190734863,169.9510040283203 27.323999404907227,166.2550048828125z"/></g><g opacity="1" transform="matrix(1,0,0,1,0,0)"><path class="secondary" fill="rgb(9,92,20)" fill-opacity="1" d=" M26.860000610351562,135.0540008544922 C53.57099914550781,129.74099731445312 78.10700225830078,116.62699890136719 97.36499786376953,97.37000274658203 C97.36499786376953,97.37000274658203 97.36499786376953,97.37000274658203 97.36499786376953,97.37000274658203 C110.15299987792969,84.58399963378906 120.2979965209961,69.40399932861328 127.21900177001953,52.696998596191406 C134.13999938964844,35.9900016784668 137.70199584960938,18.083999633789062 137.70199584960938,0 C137.70199584960938,-18.083999633789062 134.13999938964844,-35.9900016784668 127.21900177001953,-52.696998596191406 C120.2979965209961,-69.40399932861328 110.15299987792969,-84.58399963378906 97.36499786376953,-97.37000274658203 C78.10700225830078,-116.62699890136719 53.57099914550781,-129.74099731445312 26.860000610351562,-135.0540008544922 C0.14900000393390656,-140.36700439453125 -27.538000106811523,-137.63999938964844 -52.69900131225586,-127.21800231933594 C-77.86000061035156,-116.7959976196289 -99.36599731445312,-99.14700317382812 -114.49600219726562,-76.50199890136719 C-129.62600708007812,-53.856998443603516 -137.70199584960938,-27.233999252319336 -137.70199584960938,0 C-137.70199584960938,27.233999252319336 -129.62600708007812,53.856998443603516 -114.49600219726562,76.50199890136719 C-99.36599731445312,99.14700317382812 -77.86000061035156,116.7959976196289 -52.69900131225586,127.21800231933594 C-27.538000106811523,137.63999938964844 0.14900000393390656,140.36700439453125 26.860000610351562,135.0540008544922z"/></g><g opacity="0.5" transform="matrix(1,0,0,1,-26.038999557495117,5.9710001945495605)" style="mix-blend-mode: multiply;"><path class="secondary" fill="rgb(9,92,20)" fill-opacity="1" d=" M59.62799835205078,127.5780029296875 C78.5719985961914,122.8239974975586 96.28800201416016,114.09500122070312 111.5999984741211,101.97000122070312 C111.5999984741211,101.97000122070312 111.5999984741211,101.97000122070312 111.5999984741211,101.97000122070312 C80.96700286865234,115.63700103759766 46.39899826049805,117.65399932861328 14.383999824523926,107.64199829101562 C-17.631000518798828,97.62999725341797 -44.891998291015625,76.27899932861328 -62.28099822998047,47.595001220703125 C-79.66999816894531,18.910999298095703 -85.99299621582031,-15.135000228881836 -80.06199645996094,-48.150001525878906 C-74.13099670410156,-81.16500091552734 -56.35499954223633,-110.88099670410156 -30.06999969482422,-131.72000122070312 C-47.902000427246094,-123.75199890136719 -63.83599853515625,-112.08100128173828 -76.81199645996094,-97.48400115966797 C-89.78800201416016,-82.88700103759766 -99.51100158691406,-65.6969985961914 -105.33499908447266,-47.05400085449219 C-111.15899658203125,-28.410999298095703 -112.94999694824219,-8.743000030517578 -110.59100341796875,10.645000457763672 C-108.23200225830078,30.033000946044922 -101.7750015258789,48.698001861572266 -91.6500015258789,65.4000015258789 C-81.5250015258789,82.10199737548828 -67.96399688720703,96.45800018310547 -51.8650016784668,107.51699829101562 C-35.76599884033203,118.57599639892578 -17.499000549316406,126.08399963378906 1.7239999771118164,129.54299926757812 C20.94700050354004,133.0019989013672 40.683998107910156,132.33200073242188 59.62799835205078,127.5780029296875z"/></g></g><g transform="matrix(-0.17139188945293427,0.9852029085159302,-0.9852029085159302,-0.17139188945293427,248.989501953125,218.1730194091797)" opacity="1" style="display: block;"><g opacity="1" transform="matrix(1,0,0,1,0,0)"><path stroke-linecap="round" stroke-linejoin="round" fill-opacity="0" class="quaternary" stroke="rgb(242,76,0)" stroke-opacity="1" stroke-width="7" d=" M0,-34.5 C0,-34.5 0,34.5 0,34.5"/></g></g><g transform="matrix(0.643664538860321,0.7653077244758606,-0.7653077244758606,0.643664538860321,240.43899536132812,217.69627380371094)" opacity="1" style="display: block;"><g opacity="1" transform="matrix(1,0,0,1,0,0)"><path stroke-linecap="round" stroke-linejoin="round" fill-opacity="0" class="primary" stroke="rgb(255,255,255)" stroke-opacity="1" stroke-width="7" d=" M18.05500030517578,-18.05500030517578 C18.05500030517578,-18.05500030517578 -18.05500030517578,18.05500030517578 -18.05500030517578,18.05500030517578"/></g></g><g transform="matrix(1,0,0,1,215,215.5)" opacity="1" style="display: block;"><g opacity="1" transform="matrix(1,0,0,1,0,0)"><path class="primary" fill="rgb(255,255,255)" fill-opacity="1" d=" M0,12.039999961853027 C6.650000095367432,12.039999961853027 12.039999961853027,6.650000095367432 12.039999961853027,0 C12.039999961853027,-6.650000095367432 6.650000095367432,-12.039999961853027 0,-12.039999961853027 C-6.650000095367432,-12.039999961853027 -12.039999961853027,-6.650000095367432 -12.039999961853027,0 C-12.039999961853027,6.650000095367432 -6.650000095367432,12.039999961853027 0,12.039999961853027z"/><path stroke-linecap="butt" stroke-linejoin="miter" fill-opacity="0" stroke-miterlimit="4" class="primary" stroke="rgb(255,255,255)" stroke-opacity="1" stroke-width="1" d=" M0,12.039999961853027 C6.650000095367432,12.039999961853027 12.039999961853027,6.650000095367432 12.039999961853027,0 C12.039999961853027,-6.650000095367432 6.650000095367432,-12.039999961853027 0,-12.039999961853027 C-6.650000095367432,-12.039999961853027 -12.039999961853027,-6.650000095367432 -12.039999961853027,0 C-12.039999961853027,6.650000095367432 -6.650000095367432,12.039999961853027 0,12.039999961853027z"/></g></g><g transform="matrix(1,0,0,1,215,215.5)" opacity="1" style="display: block;"><g opacity="1" transform="matrix(1,0,0,1,0,0)"><path stroke-linecap="round" stroke-linejoin="round" fill-opacity="0" class="primary" stroke="rgb(255,255,255)" stroke-opacity="1" stroke-width="7" d=" M-72.33999633789062,72.33999633789062 C-72.33999633789062,72.33999633789062 -85.0999984741211,85.0999984741211 -85.0999984741211,85.0999984741211 M-102.30999755859375,0 C-102.30999755859375,0 -120.3499984741211,0 -120.3499984741211,0 M-72.33999633789062,-72.33999633789062 C-72.33999633789062,-72.33999633789062 -85.0999984741211,-85.0999984741211 -85.0999984741211,-85.0999984741211 M0,-102.30999755859375 C0,-102.30999755859375 0,-120.3499984741211 0,-120.3499984741211 M72.33999633789062,-72.33999633789062 C72.33999633789062,-72.33999633789062 85.0999984741211,-85.0999984741211 85.0999984741211,-85.0999984741211 M102.30999755859375,0 C102.30999755859375,0 120.3499984741211,0 120.3499984741211,0 M72.33999633789062,72.33999633789062 C72.33999633789062,72.33999633789062 85.0999984741211,85.0999984741211 85.0999984741211,85.0999984741211 M0,102.30999755859375 C0,102.30999755859375 0,120.3499984741211 0,120.3499984741211"/></g></g></g></g></svg>